# xmcd
#
# Track frame offsets: 
#        150
#        12830
#        22826
#        33427
#        43832
#        54854
#        65880
#        77870
#        88203
#        99234
#        108575
#        121133
#        130398
#        140271
#        151324
#
# Disc length: 2215 seconds
#
# Revision: 1
# Processed by: cddbd v1.4PL0 Copyright (c) Steve Scherf et al.
# Submitted via: ExactAudioCopy v0.90a11
#
DISCID=c008a50f
DTITLE=Various Artist - Country Classics Volume 1
DYEAR=1900
DGENRE=
TTITLE0=Sunshine - Billy Jo Spears
TTITLE1=Ballad Of A Teenage Queen - Johnny Cash
TTITLE2=Honky Tonk Merry Go Round - Patsy Cline
TTITLE3=Its Only Make Believe - Conway Twitty
TTITLE4=I'm So Lonesome I Could Cry -  Billie Jo Spears
TTITLE5=Big Mamou/ Waylon Jennings
TTITLE6=Lonely Side Of Town/ Kitty Wells
TTITLE7=Good Time Liberator - Kenny Rogers
TTITLE8=Just Out Of Reach - Patsy Cline
TTITLE9=Let The Good Times Roll/ Freddy Fender
TTITLE10=Please Release Me - Kitty Wells
TTITLE11=Ever Since You Went Away/ Conway Twitty
TTITLE12=IT's All Over/ Anne Murray
TTITLE13=Cry Cry Cry/ Johnny Cash
TTITLE14=Harper Valley PTA/ Jeannie C Riley
EXTD=
EXTT0=
EXTT1=
EXTT2=
EXTT3=
EXTT4=
EXTT5=
EXTT6=
EXTT7=
EXTT8=
EXTT9=
EXTT10=
EXTT11=
EXTT12=
EXTT13=
EXTT14=
PLAYORDER=
